<svg id="Layer_3" height="512" viewBox="0 0 48 48" width="512" xmlns="http://www.w3.org/2000/svg" data-name="Layer 3"><path d="m24.9951 38.6934a8.7521 8.7521 0 0 0 9.7549-8.6934 8.7066 8.7066 0 0 0 -3-6.59v-8.41a5.75 5.75 0 0 0 -11.5 0v8.41a8.7458 8.7458 0 0 0 4.7451 15.2832zm-3.5259-14.3477a.7492.7492 0 0 0 .2808-.585v-8.7607a4.25 4.25 0 0 1 8.5 0v8.7607a.7492.7492 0 0 0 .2808.585 7.2509 7.2509 0 1 1 -9.0616 0z"/><path d="m24.8706 34.6191a4.8565 4.8565 0 0 0 4.0815-.8974 4.73 4.73 0 0 0 -.2021-7.5742v-9.1475a2.75 2.75 0 0 0 -5.5 0v9.1465a4.7378 4.7378 0 0 0 1.6206 8.4726zm-.4936-7.416a.7513.7513 0 0 0 .373-.6484v-9.5547a1.25 1.25 0 0 1 2.5 0v9.5547a.7517.7517 0 0 0 .3726.6484 3.2322 3.2322 0 0 1 .3964 5.3438 3.2886 3.2886 0 0 1 -2.8086.6113 3.2391 3.2391 0 0 1 -.8334-5.9551z"/><path d="m38 21.25h-4a.75.75 0 0 0 0 1.5h4a.75.75 0 0 0 0-1.5z"/><path d="m34 19.75h2a.75.75 0 0 0 0-1.5h-2a.75.75 0 0 0 0 1.5z"/><path d="m38 15.25h-4a.75.75 0 0 0 0 1.5h4a.75.75 0 0 0 0-1.5z"/><path d="m34 12.25a.75.75 0 0 0 0 1.5h2a.75.75 0 0 0 0-1.5z"/><circle cx="10" cy="15" r=".75"/><path d="m14 15.75h1a1.2511 1.2511 0 0 1 1.25 1.25.75.75 0 0 0 1.5 0 2.7528 2.7528 0 0 0 -2.75-2.75h-1a2.7528 2.7528 0 0 0 -2.75 2.75v4a2.7528 2.7528 0 0 0 2.75 2.75h1a2.7528 2.7528 0 0 0 2.75-2.75.75.75 0 0 0 -1.5 0 1.2511 1.2511 0 0 1 -1.25 1.25h-1a1.2511 1.2511 0 0 1 -1.25-1.25v-4a1.2511 1.2511 0 0 1 1.25-1.25z"/></svg>