<svg id="Layer_3" height="512" viewBox="0 0 48 48" width="512" xmlns="http://www.w3.org/2000/svg" data-name="Layer 3"><path d="m33.75 27.2988v-1.2988a7.7587 7.7587 0 0 0 -7.75-7.75c-.1815 0-.3592.0149-.5376.0272a5.7365 5.7365 0 1 0 -7.1852 7.1851c-.0123.1784-.0272.3562-.0272.5377v1.2983a5.75 5.75 0 0 0 .75 11.4517h14a5.75 5.75 0 0 0 .75-11.4512zm-18-7.2988a4.247 4.247 0 0 1 8.2311-1.474 7.7668 7.7668 0 0 0 -5.4551 5.4551 4.2318 4.2318 0 0 1 -2.776-3.9811zm17.25 17.25h-14a4.25 4.25 0 1 1 0-8.5.75.75 0 0 0 .75-.75v-2a6.25 6.25 0 0 1 12.5 0v2a.75.75 0 0 0 .75.75 4.25 4.25 0 0 1 0 8.5z"/><path d="m10 19.75h2a.75.75 0 0 0 0-1.5h-2a.75.75 0 0 0 0 1.5z"/><path d="m20 12.75a.75.75 0 0 0 .75-.75v-2a.75.75 0 0 0 -1.5 0v2a.75.75 0 0 0 .75.75z"/><path d="m13.8125 14.8735a.75.75 0 0 0 1.06-1.06l-1.414-1.4146a.75.75 0 1 0 -1.0606 1.0606z"/><path d="m25.6573 15.0878a.7417.7417 0 0 0 .53-.2143l1.4141-1.4145a.75.75 0 1 0 -1.0606-1.0606l-1.4138 1.4146a.7445.7445 0 0 0 .53 1.2748z"/><path d="m12.3984 27.6016a.7693.7693 0 0 0 1.0606 0l1.414-1.4146a.75.75 0 0 0 -1.06-1.0605l-1.4146 1.4145a.75.75 0 0 0 0 1.0606z"/></svg>