<svg id="Layer_3" height="512" viewBox="0 0 48 48" width="512" xmlns="http://www.w3.org/2000/svg" data-name="Layer 3"><path d="m28.75 22.1227 3.1482-1.8183 5.1658 1.3841a.7626.7626 0 0 0 .9189-.53.7507.7507 0 0 0 -.53-.9189l-3.7172-.996 2.76-1.5939a.75.75 0 0 0 -.75-1.2988l-2.7568 1.5923.9946-3.7124a.75.75 0 1 0 -1.4492-.3887l-1.3831 5.1625-3.1512 1.8196-3.25-1.8758v-3.6379l3.78-3.78a.75.75 0 0 0 -1.06-1.0605l-2.72 2.72v-3.19a.75.75 0 0 0 -1.5 0v3.19l-2.72-2.72a.75.75 0 0 0 -1.06 1.06l3.78 3.78v3.6379l-3.25 1.8758-3.1511-1.82-1.3831-5.1625a.75.75 0 1 0 -1.4492.3887l.9946 3.7124-2.7568-1.5923a.75.75 0 0 0 -.75 1.2988l2.76 1.5939-3.7172.996a.7507.7507 0 0 0 -.53.9189.7633.7633 0 0 0 .9189.53l5.1658-1.3841 3.1481 1.8192v3.7538l-3.1487 1.8189-5.1653-1.3839a.75.75 0 0 0 -.3886 1.4492l3.7169.9959-2.7594 1.594a.75.75 0 0 0 -.2744 1.0244.76.76 0 0 0 1.0244.2744l2.7568-1.5923-.9946 3.7129a.75.75 0 1 0 1.4492.3887l1.3837-5.1631 3.15-1.8199 3.25 1.8763v3.638l-3.78 3.78a.75.75 0 0 0 0 1.0606.76.76 0 0 0 1.0606 0l2.72-2.72v3.1894a.75.75 0 0 0 1.5 0v-3.19l2.72 2.72a.75.75 0 1 0 1.0594-1.06l-3.78-3.78v-3.638l3.25-1.8763 3.1508 1.82 1.3832 5.1626a.7608.7608 0 0 0 .9189.53.7508.7508 0 0 0 .53-.919l-.9946-3.7124 2.7568 1.5923a.7626.7626 0 0 0 1.0249-.2742.75.75 0 0 0 -.2744-1.0244l-2.7594-1.594 3.7169-.9959a.75.75 0 1 0 -.3886-1.4492l-5.1653 1.3839-3.1492-1.8189zm-1.5 3.7543-3.25 1.8759-3.25-1.8759v-3.7535l3.25-1.8759 3.25 1.8759z"/></svg>