<?xml version="1.0" encoding="UTF-8"?>
<svg xmlns="http://www.w3.org/2000/svg" id="Layer_3" data-name="Layer 3" viewBox="0 0 48 48" width="512" height="512"><path d="M26,9.25a5.7549,5.7549,0,0,0-5.5424,4.2408,4.6936,4.6936,0,0,0-6.1561,4.0006A3.7466,3.7466,0,1,0,13,24.75h6.0189a8.7307,8.7307,0,0,0,5.9772,13.9434A8.8477,8.8477,0,0,0,34.75,30a8.7066,8.7066,0,0,0-3-6.59V15A5.7561,5.7561,0,0,0,26,9.25ZM10.75,21a2.25,2.25,0,0,1,4.3818-.7207.75.75,0,1,0,1.4219-.4785,3.7332,3.7332,0,0,0-.8037-1.3377V18A3.2538,3.2538,0,0,1,19,14.75a3.1674,3.1674,0,0,1,1.25.2523V23.25H13A2.2531,2.2531,0,0,1,10.75,21Zm22.5,9a7.2513,7.2513,0,0,1-14.4443.918,7.24,7.24,0,0,1,2.664-6.5723.7518.7518,0,0,0,.28-.585V15a4.25,4.25,0,0,1,8.5,0v8.7607a.7518.7518,0,0,0,.28.585A7.2176,7.2176,0,0,1,33.25,30Z"/><path d="M28.75,26.1475V17a2.75,2.75,0,0,0-5.5,0v9.1465a4.7508,4.7508,0,1,0,5.5.001Zm-.7314,6.3994a3.2783,3.2783,0,0,1-5.167-1.7207,3.2211,3.2211,0,0,1,1.5254-3.6231.75.75,0,0,0,.373-.6484V17a1.25,1.25,0,0,1,2.5,0v9.5547a.7513.7513,0,0,0,.3721.6484,3.2316,3.2316,0,0,1,.3965,5.3438Z"/><path d="M38,21.25H34a.75.75,0,0,0,0,1.5h4a.75.75,0,0,0,0-1.5Z"/><path d="M34,19.75h2a.75.75,0,0,0,0-1.5H34a.75.75,0,0,0,0,1.5Z"/><path d="M38,15.25H34a.75.75,0,0,0,0,1.5h4a.75.75,0,0,0,0-1.5Z"/><path d="M34,13.75h2a.75.75,0,0,0,0-1.5H34a.75.75,0,0,0,0,1.5Z"/><path d="M15.3818,29.625a.7489.7489,0,0,0-1.0244-.2744l-.6074.3506V29a.75.75,0,0,0-1.5,0v.7012l-.6074-.3506a.75.75,0,1,0-.75,1.2988L11.5,31l-.6073.3506a.75.75,0,0,0-.2745,1.0244.7587.7587,0,0,0,1.0245.2744l.6074-.3506V33a.75.75,0,0,0,1.5,0v-.7012l.6074.3506a.75.75,0,0,0,.75-1.2988L14.5,31l.6073-.3506A.75.75,0,0,0,15.3818,29.625Z"/></svg>
