<?xml version="1.0" encoding="UTF-8"?>
<svg xmlns="http://www.w3.org/2000/svg" id="Layer_3" data-name="Layer 3" viewBox="0 0 48 48" width="512" height="512"><path d="M21.3945,31.1826a4.8008,4.8008,0,0,0,7.5576,2.5391,4.73,4.73,0,0,0-.2021-7.5742V17a2.75,2.75,0,0,0-5.5,0v9.1465A4.7513,4.7513,0,0,0,21.3945,31.1826Zm2.9825-3.98a.75.75,0,0,0,.373-.6484V17a1.25,1.25,0,0,1,2.5,0v9.5547a.7513.7513,0,0,0,.3721.6484,3.2316,3.2316,0,0,1,.3965,5.3438,3.2788,3.2788,0,0,1-5.167-1.7207A3.2211,3.2211,0,0,1,24.377,27.2031Z"/><path d="M38,21.25H34a.75.75,0,0,0,0,1.5h4a.75.75,0,0,0,0-1.5Z"/><path d="M34,19.75h2a.75.75,0,0,0,0-1.5H34a.75.75,0,0,0,0,1.5Z"/><path d="M38,15.25H34a.75.75,0,0,0,0,1.5h4a.75.75,0,0,0,0-1.5Z"/><path d="M34,13.75h2a.75.75,0,0,0,0-1.5H34a.75.75,0,0,0,0,1.5Z"/><path d="M19.0189,24.75a8.7307,8.7307,0,0,0,5.9772,13.9434A8.86,8.86,0,0,0,34.75,30a8.7066,8.7066,0,0,0-3-6.59V15a5.7466,5.7466,0,0,0-11.2924-1.5092,4.6936,4.6936,0,0,0-6.1561,4.0006A3.7466,3.7466,0,1,0,13,24.75ZM26,10.75A4.2544,4.2544,0,0,1,30.25,15v8.7607a.7518.7518,0,0,0,.28.585A7.2176,7.2176,0,0,1,33.25,30a7.2513,7.2513,0,0,1-14.4443.918,7.24,7.24,0,0,1,2.664-6.5723.7518.7518,0,0,0,.28-.585V15A4.2544,4.2544,0,0,1,26,10.75ZM10.75,21a2.25,2.25,0,0,1,4.3818-.7207.75.75,0,1,0,1.4219-.4785,3.7332,3.7332,0,0,0-.8037-1.3377V18A3.2538,3.2538,0,0,1,19,14.75a3.1674,3.1674,0,0,1,1.25.2523V23.25H13A2.2531,2.2531,0,0,1,10.75,21Z"/></svg>
