<svg id="Layer_3" height="512" viewBox="0 0 48 48" width="512" xmlns="http://www.w3.org/2000/svg" data-name="Layer 3"><path d="m24.9961 38.6934a9.3692 9.3692 0 0 0 6.835-2.17 8.7432 8.7432 0 0 0 -.0811-13.1134v-8.41a5.75 5.75 0 0 0 -11.5 0v8.41a8.7457 8.7457 0 0 0 4.7461 15.2832zm-3.5261-14.3477a.7518.7518 0 0 0 .28-.585v-8.7607a4.25 4.25 0 0 1 8.5 0v8.7607a.7518.7518 0 0 0 .28.585 7.2516 7.2516 0 1 1 -9.0606 0z"/><path d="m24.8711 34.6191a4.8266 4.8266 0 0 0 4.081-.8974 4.73 4.73 0 0 0 -.2021-7.5742v-9.1475a2.75 2.75 0 0 0 -5.5 0v9.1465a4.7377 4.7377 0 0 0 1.6211 8.4726zm-.4941-7.416a.75.75 0 0 0 .373-.6484v-9.5547a1.25 1.25 0 0 1 2.5 0v9.5547a.7513.7513 0 0 0 .3721.6484 3.2316 3.2316 0 0 1 .3965 5.3438 3.2907 3.2907 0 0 1 -2.8077.6113 3.239 3.239 0 0 1 -.8339-5.9551z"/><path d="m38 21.25h-4a.75.75 0 0 0 0 1.5h4a.75.75 0 0 0 0-1.5z"/><path d="m34 19.75h2a.75.75 0 0 0 0-1.5h-2a.75.75 0 0 0 0 1.5z"/><path d="m38 15.25h-4a.75.75 0 0 0 0 1.5h4a.75.75 0 0 0 0-1.5z"/><path d="m34 13.75h2a.75.75 0 0 0 0-1.5h-2a.75.75 0 0 0 0 1.5z"/><circle cx="10" cy="15" r=".75"/><path d="m17 16.75a.75.75 0 0 0 0-1.5h-4a.75.75 0 0 0 -.75.75v8a.75.75 0 0 0 1.5 0v-3.25h2.25a.75.75 0 0 0 0-1.5h-2.25v-2.5z"/></svg>