<svg id="Layer_3" height="512" viewBox="0 0 48 48" width="512" xmlns="http://www.w3.org/2000/svg" data-name="Layer 3"><path d="m33.75 27.2988v-1.2988a7.75 7.75 0 0 0 -15.5 0v1.2983a5.75 5.75 0 0 0 .75 11.4517h14a5.75 5.75 0 0 0 .75-11.4512zm-.75 9.9512h-14a4.25 4.25 0 1 1 0-8.5.75.75 0 0 0 .75-.75v-2a6.25 6.25 0 0 1 12.5 0v2a.75.75 0 0 0 .75.75 4.25 4.25 0 0 1 0 8.5z"/><path d="m15 20.75a5.7162 5.7162 0 0 0 5.7168-5.2.76.76 0 0 0 -1.1182-.7222 3.2483 3.2483 0 0 1 -4.4267-4.4278.7568.7568 0 0 0 -.7227-1.1167 5.7462 5.7462 0 0 0 .5508 11.4667zm-1.6611-9.6611a4.7487 4.7487 0 0 0 5.5722 5.5727 4.25 4.25 0 1 1 -5.5722-5.5727z"/></svg>