<svg id="Layer_3" enable-background="new 0 0 48 48" height="512" viewBox="0 0 48 48" width="512" xmlns="http://www.w3.org/2000/svg"><path d="m32.75 26.1475v-9.1475c0-1.5166-1.2334-2.75-2.75-2.75s-2.75 1.2334-2.75 2.75v9.1465c-1.5879 1.1289-2.3291 3.0976-1.8555 5.0361.8022 3.2832 4.9262 4.6285 7.5576 2.5391 1.1426-.9072 1.7979-2.2637 1.7979-3.7217 0-1.5254-.7568-2.9648-2-3.8525zm-.7314 6.3994c-1.7887 1.4185-4.6175.5277-5.167-1.7207-.3555-1.4551.2432-2.877 1.5254-3.623.2314-.1348.373-.3818.373-.6484v-9.5548c0-.6895.5605-1.25 1.25-1.25s1.25.5605 1.25 1.25v9.5547c0 .2666.1416.5137.3721.6484 1.0195.5928 1.6279 1.6387 1.6279 2.7969 0 .9971-.4482 1.9258-1.2314 2.5469z"/><path d="m10 18.75h3c.4141 0 .75-.3359.75-.75s-.3359-.75-.75-.75h-3c-.4141 0-.75.3359-.75.75s.3359.75.75.75z"/><path d="m13.3984 25.6016c.2844.2844.7688.2917 1.0605 0l1.4141-1.4146c.293-.293.293-.7681 0-1.0605-.293-.293-.7676-.293-1.0606 0l-1.4141 1.4146c-.2928.2929-.2928.7675.0001 1.0605z"/><path d="m15.873 12.8735c.293-.2925.293-.7676 0-1.0605l-1.4141-1.4146c-.293-.293-.7676-.293-1.0605 0-.293.2925-.293.7676 0 1.0605 0 0 1.4134 1.4139 1.4141 1.4146.283.2831.7675.2931 1.0605 0z"/><path d="m35.75 23.41v-8.41c0-3.17-2.58-5.75-5.75-5.75-2.63 0-4.85 1.77-5.53 4.19-.96-.75-2.17-1.19-3.47-1.19-3.17 0-5.75 2.58-5.75 5.75s2.58 5.75 5.75 5.75c1.2 0 2.32-.38 3.25-1.02v.68c-2.2 1.92-3.29 4.76-2.93 7.69.48 3.96 3.71 7.15 7.68 7.59 5.11.57 9.75-3.53 9.75-8.69 0-2.54-1.09-4.92-3-6.59zm-14.75-1.16c-2.34 0-4.25-1.91-4.25-4.25s1.91-4.25 4.25-4.25c1.31 0 2.48.6 3.25 1.53v5.44c-.77.93-1.94 1.53-3.25 1.53zm13.81 13.13c-1.5 1.33-3.52 2.06-5.65 1.82-3.28-.36-5.95-3.01-6.35-6.28-.31-2.53.68-4.99 2.66-6.57.1801-.15.28-.36.28-.59 0 0 0-8.9.01-8.97.11-2.24 1.97-4.04 4.24-4.04 2.34 0 4.25 1.91 4.25 4.25v8.76c0 .23.1.44.28.59 1.73 1.38 2.72 3.44 2.72 5.65 0 2.14-.96 4.05-2.44 5.38z"/></svg>