<svg id="Layer_3" height="512" viewBox="0 0 48 48" width="512" xmlns="http://www.w3.org/2000/svg" data-name="Layer 3"><path d="m17.1929 29.75h13.6171a5.86 5.86 0 0 0 5.8213-4.5645 5.7582 5.7582 0 0 0 -4.8813-6.8867v-1.2988a7.7492 7.7492 0 0 0 -8.7046-7.6929 7.8871 7.8871 0 0 0 -6.7954 7.9546v1.0366a5.7405 5.7405 0 0 0 -4.918 6.6841 6.1391 6.1391 0 0 0 5.8609 4.7676zm-3.2056-8.7568a4.262 4.262 0 0 1 3.0127-1.2432.75.75 0 0 0 .75-.75v-1.7383a6.3877 6.3877 0 0 1 5.4731-6.4653 6.2487 6.2487 0 0 1 7.0269 6.2036v2a.75.75 0 0 0 .75.75 4.2379 4.2379 0 0 1 3.29 1.5605 4.2869 4.2869 0 0 1 .87 3.5791 4.3567 4.3567 0 0 1 -4.35 3.3604h-13.6171a4.63 4.63 0 0 1 -4.3814-3.5146 4.2692 4.2692 0 0 1 1.1758-3.7422z"/><path d="m17.47 38.53a.7565.7565 0 0 0 1.0606 0l3-3a.75.75 0 0 0 -.5306-1.28h-2.1895l1.72-1.72a.75.75 0 0 0 -1.0605-1.06l-3 3a.75.75 0 0 0 .53 1.28h2.19l-1.72 1.72a.75.75 0 0 0 0 1.06z"/><path d="m27.47 38.53a.7574.7574 0 0 0 1.0606 0l3-3a.75.75 0 0 0 -.5306-1.28h-2.1895l1.72-1.72a.75.75 0 0 0 -1.0605-1.06l-3 3a.75.75 0 0 0 .53 1.28h2.19l-1.72 1.72a.75.75 0 0 0 0 1.06z"/></svg>