<svg id="Layer_3" height="512" viewBox="0 0 48 48" width="512" xmlns="http://www.w3.org/2000/svg" data-name="Layer 3"><path d="m23.2842 10.79a.74.74 0 0 0 -.77-.4239 13.8816 13.8816 0 0 0 -12.2642 13.6339 13.9273 13.9273 0 0 0 14.0674 13.75 13.9815 13.9815 0 0 0 13.3955-9.5571.75.75 0 0 0 -1.1445-.8462 10.5452 10.5452 0 0 1 -6.1045 1.9033 10.3988 10.3988 0 0 1 -10.5186-10.25 10.0353 10.0353 0 0 1 3.1768-7.3457.75.75 0 0 0 .1621-.8643zm-4.8389 8.21a11.9 11.9 0 0 0 12.0186 11.75 12.1755 12.1755 0 0 0 4.9795-1.0474 12.5573 12.5573 0 0 1 -11.126 6.5474 12.4257 12.4257 0 0 1 -12.5674-12.25 12.3194 12.3194 0 0 1 8.8262-11.6943 11.4739 11.4739 0 0 0 -2.1309 6.6943z"/></svg>