<svg id="Layer_3" height="512" viewBox="0 0 48 48" width="512" xmlns="http://www.w3.org/2000/svg" data-name="Layer 3"><path d="m24 10.25a13.75 13.75 0 1 0 13.75 13.75 13.7656 13.7656 0 0 0 -13.75-13.75zm0 26a12.25 12.25 0 1 1 12.25-12.25 12.2636 12.2636 0 0 1 -12.25 12.25z"/><path d="m29 20.25a2.75 2.75 0 1 0 2.75 2.75 2.7528 2.7528 0 0 0 -2.75-2.75zm0 4a1.25 1.25 0 1 1 1.25-1.25 1.2511 1.2511 0 0 1 -1.25 1.25z"/><path d="m23.75 19a2.75 2.75 0 1 0 -2.75 2.75 2.7528 2.7528 0 0 0 2.75-2.75zm-4 0a1.25 1.25 0 1 1 1.25 1.25 1.2511 1.2511 0 0 1 -1.25-1.25z"/><path d="m23 28.25a2.75 2.75 0 1 0 2.75 2.75 2.7528 2.7528 0 0 0 -2.75-2.75zm0 4a1.25 1.25 0 1 1 1.25-1.25 1.2511 1.2511 0 0 1 -1.25 1.25z"/><circle cx="17" cy="25" r=".75"/><circle cx="28" cy="16" r=".75"/><circle cx="31" cy="29" r=".75"/><circle cx="23" cy="25" r=".75"/></svg>