<svg id="Layer_3" enable-background="new 0 0 48 48" height="512" viewBox="0 0 48 48" width="512" xmlns="http://www.w3.org/2000/svg"><g><path d="m10 25.25c-.4141 0-.75.3359-.75.75s.3359.75.75.75c6.2031 0 11.25 5.0469 11.25 11.25 0 .4141.3359.75.75.75s.75-.3359.75-.75c0-7.0303-5.7197-12.75-12.75-12.75z"/><path d="m10 30.25c-.4141 0-.75.3359-.75.75s.3359.75.75.75c3.4463 0 6.25 2.8037 6.25 6.25 0 .4141.3359.75.75.75s.75-.3359.75-.75c0-4.2734-3.4766-7.75-7.75-7.75z"/><path d="m38.75 21c0-2.6191-2.1309-4.75-4.75-4.75-.4248 0-.8447.0566-1.25.168 0 0 0-1.9173 0-1.918 0-2.8574-2.3946-5.25-5.25-5.25-2.8945 0-5.25 2.3555-5.25 5.25v1.7578c-1.1714-.071-2.369.3325-3.2724 1.0778-1.0815.8922-1.7276 2.2626-1.7276 3.6644 0 .2844.029.5668.0807.8461-2.2867-1.0451-4.7821-1.5961-7.3307-1.5961-.4141 0-.75.3359-.75.75s.3359.75.75.75c3.5999 0 7.3451 1.2955 10.1416 3.5762 3.8818 3.1025 6.1084 7.7226 6.1084 12.6738 0 .4141.3359.75.75.75s.75-.3359.75-.75c0-4.6181-1.7768-8.967-4.9323-12.2507 0 0 11.1225-.0098 11.1304-.0098.1222-.0001.2452.0056.3668-.0101 2.4919-.1653 4.4351-2.2267 4.4351-4.7294zm-4.5508 3.2402-12.2295.0098c-.3408 0-.6631-.0557-.9814-.1689-.4912-.3936-1.0195-.7666-1.5752-1.1123-.4346-.5723-.6631-1.25-.6631-1.9688 0-1.0124.4966-2.0033 1.3092-2.6078.773-.5749 1.814-.7846 2.7474-.5378.4689.124.9434-.2404.9434-.7246v-2.6298c0-2.0674 1.6826-3.75 3.75-3.75 2.0423 0 3.75 1.71 3.75 3.75v2.638c-.5268.3739-.9849.8587-1.332 1.4342-.4866.8069.7759 1.6173 1.2831.7755.5645-.9367 1.69-1.5977 2.7989-1.5977 1.792 0 3.25 1.458 3.25 3.25 0 1.7275-1.3525 3.1514-3.0508 3.2402z"/></g></svg>