<?xml version="1.0" encoding="UTF-8"?>
<svg xmlns="http://www.w3.org/2000/svg" id="Layer_3" data-name="Layer 3" viewBox="0 0 48 48" width="512" height="512"><path d="M23.6646,32.3291A4.4326,4.4326,0,0,0,21.25,36a2.75,2.75,0,0,0,5.5,0,4.4326,4.4326,0,0,0-2.4146-3.6709A.75.75,0,0,0,23.6646,32.3291ZM25.25,36a1.25,1.25,0,0,1-2.5,0A2.7283,2.7283,0,0,1,24,33.8843,2.7283,2.7283,0,0,1,25.25,36Z"/><path d="M31.6646,32.3291A4.4326,4.4326,0,0,0,29.25,36a2.75,2.75,0,0,0,5.5,0,4.4326,4.4326,0,0,0-2.4146-3.6709A.75.75,0,0,0,31.6646,32.3291ZM33.25,36a1.25,1.25,0,0,1-2.5,0A2.7283,2.7283,0,0,1,32,33.8843,2.7283,2.7283,0,0,1,33.25,36Z"/><path d="M15.6646,32.3291A4.4326,4.4326,0,0,0,13.25,36a2.75,2.75,0,0,0,5.5,0,4.4326,4.4326,0,0,0-2.4146-3.6709A.75.75,0,0,0,15.6646,32.3291ZM17.25,36a1.25,1.25,0,0,1-2.5,0A2.7283,2.7283,0,0,1,16,33.8843,2.7283,2.7283,0,0,1,17.25,36Z"/><path d="M17.1929,29.75H30.81a5.86,5.86,0,0,0,5.8213-4.5645A5.7582,5.7582,0,0,0,31.75,18.2988V17a7.7492,7.7492,0,0,0-8.7046-7.6929A7.8871,7.8871,0,0,0,16.25,17.2617v1.0366a5.7405,5.7405,0,0,0-4.918,6.6841A6.1391,6.1391,0,0,0,17.1929,29.75Zm-3.2056-8.7568A4.262,4.262,0,0,1,17,19.75a.75.75,0,0,0,.75-.75V17.2617a6.3877,6.3877,0,0,1,5.4731-6.4653,6.6542,6.6542,0,0,1,.7847-.0469,6.1809,6.1809,0,0,1,4.1416,1.5737A6.2575,6.2575,0,0,1,30.25,17v2a.75.75,0,0,0,.75.75,4.2379,4.2379,0,0,1,3.29,1.5605,4.2869,4.2869,0,0,1,.87,3.5791A4.3567,4.3567,0,0,1,30.81,28.25H17.1929a4.63,4.63,0,0,1-4.3814-3.5146A4.2692,4.2692,0,0,1,13.9873,20.9932Z"/></svg>
