<svg id="Layer_3" height="512" viewBox="0 0 48 48" width="512" xmlns="http://www.w3.org/2000/svg" data-name="Layer 3"><path d="m11.332 24.9824c.468 2.8067 3.358 4.7676 7.0254 4.7676h12.4561a5.8571 5.8571 0 0 0 5.8174-4.5635 5.7585 5.7585 0 0 0 -4.8809-6.8877v-1.2988a7.7492 7.7492 0 0 0 -8.7046-7.6929 7.8871 7.8871 0 0 0 -6.7954 7.9546v1.0366a5.7405 5.7405 0 0 0 -4.918 6.6841zm2.6553-3.9892a4.262 4.262 0 0 1 3.0127-1.2432.75.75 0 0 0 .75-.75v-1.7383a6.3877 6.3877 0 0 1 5.4731-6.4653 6.6542 6.6542 0 0 1 .7847-.0469 6.1809 6.1809 0 0 1 4.1416 1.5737 6.2575 6.2575 0 0 1 2.1006 4.6768v2a.75.75 0 0 0 .75.75 4.2379 4.2379 0 0 1 3.29 1.5605 4.2872 4.2872 0 0 1 .87 3.5791 4.3539 4.3539 0 0 1 -4.3467 3.36h-12.4559c-2.92 0-5.2007-1.4453-5.5459-3.5146a4.2692 4.2692 0 0 1 1.1758-3.7418z"/><path d="m32.47 31.47-2 2a.7573.7573 0 0 0 .53 1.28.7476.7476 0 0 0 .53-.22l2-2a.75.75 0 0 0 -1.06-1.06z"/><path d="m26.476 38.5242a.7469.7469 0 0 0 1.054.0058l2-2a.75.75 0 0 0 -1.06-1.06l-2 2a.7568.7568 0 0 0 .006 1.0542z"/><path d="m26.47 31.47-2 2a.7579.7579 0 0 0 .53 1.28.7476.7476 0 0 0 .53-.22l2-2a.75.75 0 0 0 -1.06-1.06z"/><path d="m20.4762 38.5241a.741.741 0 0 0 1.0538.0059l2-2a.75.75 0 0 0 -1.06-1.06l-2 2a.7568.7568 0 0 0 .0062 1.0541z"/><path d="m20.47 31.47-2 2a.758.758 0 0 0 .53 1.28.7476.7476 0 0 0 .53-.22l2-2a.75.75 0 0 0 -1.06-1.06z"/><path d="m15.53 31.47a.75.75 0 0 0 -1.0606 0l-2 2a.7582.7582 0 0 0 .5306 1.28.7476.7476 0 0 0 .53-.22l2-2a.75.75 0 0 0 0-1.06z"/><path d="m15 38.7473a.7477.7477 0 0 0 .53-.217l2-2a.75.75 0 0 0 -1.06-1.0603l-2 2a.7561.7561 0 0 0 .53 1.2773z"/></svg>