<?xml version="1.0" encoding="UTF-8"?>
<svg xmlns="http://www.w3.org/2000/svg" id="Layer_3" data-name="Layer 3" viewBox="0 0 48 48" width="512" height="512"><path d="M31.75,18.2983V17a7.7546,7.7546,0,0,0-8.71-7.6948A7.8946,7.8946,0,0,0,16.25,17.26v1.0385a5.7432,5.7432,0,0,0-4.9194,6.6871A6.1494,6.1494,0,0,0,17.19,29.75h4.7022l-1.5884,3.9717a.75.75,0,0,0,.23.8662.7612.7612,0,0,0,.896.0264L28.3791,29.75H30.81a5.8728,5.8728,0,0,0,5.8256-4.564,5.8,5.8,0,0,0-1.1889-4.8315A5.73,5.73,0,0,0,31.75,18.2983ZM23.6211,28.58A.75.75,0,0,0,23,28.25H19.6011l3.75-4.5H28.19l-2.72,2.72A.75.75,0,0,0,26,27.75h2.6206l-5.99,4.1934,1.0659-2.6651A.75.75,0,0,0,23.6211,28.58ZM35.165,24.89A4.368,4.368,0,0,1,30.81,28.25H30.522l.9082-.6357A.75.75,0,0,0,31,26.25H27.8105l2.72-2.72A.75.75,0,0,0,30,22.25H23a.7489.7489,0,0,0-.5762.27l-4.7749,5.73H17.19a4.6382,4.6382,0,0,1-4.38-3.5107,4.31,4.31,0,0,1,1.1772-3.7461A4.262,4.262,0,0,1,17,19.75a.75.75,0,0,0,.75-.75V17.26a6.3943,6.3943,0,0,1,5.4688-6.4654A6.2549,6.2549,0,0,1,30.25,17v2a.75.75,0,0,0,.75.75,4.2388,4.2388,0,0,1,3.2876,1.5562A4.3025,4.3025,0,0,1,35.165,24.89Z"/><path d="M16.3354,32.3291a.75.75,0,0,0-.6708,0A4.4326,4.4326,0,0,0,13.25,36a2.75,2.75,0,0,0,5.5,0A4.4326,4.4326,0,0,0,16.3354,32.3291ZM16,37.25A1.2511,1.2511,0,0,1,14.75,36,2.7283,2.7283,0,0,1,16,33.8843,2.7283,2.7283,0,0,1,17.25,36,1.2511,1.2511,0,0,1,16,37.25Z"/><path d="M33.75,36a4.4326,4.4326,0,0,0-2.4146-3.6709.75.75,0,0,0-.6708,0A4.4326,4.4326,0,0,0,28.25,36a2.75,2.75,0,0,0,5.5,0Zm-4,0A2.7283,2.7283,0,0,1,31,33.8843,2.7283,2.7283,0,0,1,32.25,36a1.25,1.25,0,0,1-2.5,0Z"/></svg>
