<svg id="Layer_3" height="512" viewBox="0 0 48 48" width="512" xmlns="http://www.w3.org/2000/svg" data-name="Layer 3"><path d="m32.75 24a8.75 8.75 0 1 0 -8.75 8.75 8.76 8.76 0 0 0 8.75-8.75zm-8.75 7.25a7.25 7.25 0 1 1 7.25-7.25 7.258 7.258 0 0 1 -7.25 7.25z"/><path d="m23.25 10v3a.75.75 0 0 0 1.5 0v-3a.75.75 0 0 0 -1.5 0z"/><path d="m38 23.25h-3a.75.75 0 0 0 0 1.5h3a.75.75 0 0 0 0-1.5z"/><path d="m33.3691 34.43a.76.76 0 0 0 1.0606 0 .75.75 0 0 0 0-1.0606l-2.1211-2.1214a.75.75 0 0 0 -1.0606 1.0606z"/><path d="m23.25 35v3a.75.75 0 0 0 1.5 0v-3a.75.75 0 0 0 -1.5 0z"/><path d="m9.25 24a.75.75 0 0 0 .75.75h3a.75.75 0 0 0 0-1.5h-3a.75.75 0 0 0 -.75.75z"/><path d="m16.2215 16.9627a.7411.7411 0 0 0 .5305-1.2713l-2.1211-2.1214a.75.75 0 0 0 -1.0609 1.0609l2.1211 2.121a.748.748 0 0 0 .5304.2108z"/><path d="m14.1005 34.6457a.745.745 0 0 0 .53-.216l2.1211-2.1211a.75.75 0 0 0 -1.0606-1.0606l-2.121 2.1211a.7548.7548 0 0 0 .5305 1.2766z"/><path d="m32.3086 16.752 2.1214-2.1211a.75.75 0 0 0 -1.0609-1.0609l-2.1211 2.1214a.75.75 0 0 0 0 1.06.7628.7628 0 0 0 1.0606.0006z"/><path d="m18.8135 12.3525a.75.75 0 0 0 -.3789.99l.4072.9135a.7684.7684 0 0 0 .99.38.75.75 0 0 0 .3789-.99l-.4072-.9136a.75.75 0 0 0 -.99-.3799z"/><path d="m27.6006 12.5283-.3584.9336a.75.75 0 1 0 1.4.5371l.3584-.9336a.75.75 0 0 0 -1.4-.5371z"/><path d="m35.2676 19.8042a.75.75 0 1 0 -.6094-1.37l-.9141.4067a.75.75 0 0 0 -.3808.99.76.76 0 0 0 .99.38z"/><path d="m35.2031 29.0476a.7657.7657 0 0 0 .7-.4788.75.75 0 0 0 -.4316-.9687l-.9336-.3584a.75.75 0 1 0 -.5371 1.4l.9336.3584a.7171.7171 0 0 0 .2687.0475z"/><path d="m28.168 33.3638a.75.75 0 0 0 -.3789.99l.4072.9136a.775.775 0 0 0 .99.38.75.75 0 0 0 .3789-.99l-.4072-.9135a.751.751 0 0 0 -.99-.3801z"/><path d="m19.3574 34.001-.3584.9336a.75.75 0 0 0 .4317.9687.76.76 0 0 0 .9687-.4316l.3584-.9336a.75.75 0 1 0 -1.4-.5371z"/><path d="m13.6465 27.7891-.9141.4067a.75.75 0 0 0 -.3808.99.7583.7583 0 0 0 .99.38l.9141-.4067a.75.75 0 1 0 -.6094-1.37z"/><path d="m12.5283 20.4.9336.3584a.7594.7594 0 0 0 .9688-.4316.75.75 0 0 0 -.4317-.9688l-.9336-.358a.75.75 0 0 0 -.5371 1.4z"/></svg>