<svg id="Layer_3" enable-background="new 0 0 48 48" height="512" viewBox="0 0 48 48" width="512" xmlns="http://www.w3.org/2000/svg"><g><path d="m24 17.25c-.1094 0-.2155.0137-.3242.0164-.3572-2.3043-2.3141-4.0164-4.6758-4.0164-2.6191 0-4.75 2.1309-4.75 4.75 0 1.032.3367 2.0001.9376 2.8078-2.4212 2.3221-3.9376 5.5806-3.9376 9.1922 0 .4141.3359.75.75.75.2412 0 .4551-.1133.5928-.29 2.041-2.25 4.8174-2.2363 6.8726.0512.1601.17.3875.2713.6411.231.1566-.0223.35-.1266.4561-.2451.8108-.9059 1.7375-1.438 2.6875-1.6263v6.6292c0 1.792 1.458 3.25 3.25 3.25s3.25-1.458 3.25-3.25c0-.4141-.3359-.75-.75-.75s-.75.3359-.75.75c0 .9648-.7852 1.75-1.75 1.75s-1.75-.7852-1.75-1.75v-6.6292c.95.1882 1.8767.7203 2.6875 1.6263.1332.1494.3635.2529.5635.2529.2106 0 .399-.0953.5537-.2529 2.0352-2.2734 4.8115-2.2881 6.8525-.0371.1377.1768.3516.29.5928.29.4141 0 .75-.3359.75-.7568-.004-7.0274-5.7218-12.7432-12.7501-12.7432zm-8.25.75c0-1.792 1.458-3.25 3.25-3.25 1.5814 0 2.8938 1.1223 3.1796 2.6453-2.1776.3135-4.175 1.1756-5.8535 2.4468-.3732-.5352-.5761-1.1705-.5761-1.8421zm3.3131 10.2108c-1.9438-1.2473-4.2543-1.2599-6.1735.0148.6885-4.3261 3.8533-7.8348 7.9897-9.0314-1.3991 2.0164-2.061 5.2936-1.8162 9.0166zm8.3423.2539c-1.0471-.784-2.1997-1.2147-3.4054-1.2147s-2.3582.4307-3.4054 1.2148c-.3702-4.4934.689-7.5425 1.8136-8.8388.3467-.3994.9043-.876 1.5918-.876s1.2451.4766 1.5918.876c1.1246 1.2962 2.1838 4.3454 1.8136 8.8387zm1.5315-.2537c.2449-3.7231-.4171-7.0004-1.8162-9.0168 4.1364 1.1966 7.3012 4.7053 7.9897 9.0314-1.9185-1.2748-4.229-1.2621-6.1735-.0146z"/><path d="m19 11.75c.4141 0 .75-.3359.75-.75v-1c0-.4141-.3359-.75-.75-.75s-.75.3359-.75.75v1c0 .4141.3359.75.75.75z"/><path d="m13.5195 13.5801c.1465.1465.3379.2197.5302.2197.6549 0 .9932-.8173.5303-1.2803l-.707-.707c-.293-.293-.7676-.293-1.0605 0s-.293.7676 0 1.0605z"/><path d="m12.75 18c0-.4141-.3359-.75-.75-.75h-1c-.4141 0-.75.3359-.75.75s.3359.75.75.75h1c.4141 0 .75-.3359.75-.75z"/><path d="m23.9502 13.7998c.1924 0 .3838-.0732.5303-.2197l.707-.707c.293-.293.293-.7676 0-1.0605s-.7676-.293-1.0605 0c0 0-.7055.7055-.707.707-.4596.4595-.1189 1.2802.5302 1.2802z"/></g></svg>