<svg id="Layer_3" height="512" viewBox="0 0 48 48" width="512" xmlns="http://www.w3.org/2000/svg" data-name="Layer 3"><path d="m24 14.25a9.75 9.75 0 1 0 9.75 9.75 9.7613 9.7613 0 0 0 -9.75-9.75zm0 18a8.25 8.25 0 1 1 8.25-8.25 8.26 8.26 0 0 1 -8.25 8.25z"/><path d="m35.7144 19.1475c-.5939-1.6358.14-4.2215-1.2848-5.5772-1.3558-1.4242-3.9413-.6927-5.5776-1.2846-1.5655-.7669-2.82-3.07-4.852-3.0356-2.0315-.0342-3.2869 2.2676-4.8525 3.0356-1.6358.5938-4.2215-.14-5.5772 1.2847-1.4242 1.3558-.6927 3.9413-1.2846 5.5776-.7669 1.5655-3.07 2.82-3.0356 4.852-.0342 2.0315 2.2676 3.2869 3.0356 4.8525.5938 1.6358-.14 4.2215 1.2847 5.5772 1.3558 1.4242 3.9413.6927 5.5776 1.2846 1.5655.7669 2.82 3.07 4.852 3.0356 2.0315.0342 3.2869-2.2676 4.8525-3.0356 1.6358-.5938 4.2215.14 5.5772-1.2847 1.4242-1.3558.6927-3.9413 1.2846-5.5776.7669-1.5655 3.07-2.82 3.0356-4.852.0342-2.0315-2.2676-3.2869-3.0355-4.8525zm.1245 7.0986a5.6347 5.6347 0 0 0 -1.9061 4.6212 3.9865 3.9865 0 0 1 -.5637 2.5018c-1.1181.9408-3.6808.2721-5.0912.96-1.4792.5263-2.7899 2.8279-4.2779 2.9209-.74 0-1.4717-.6856-2.2461-1.4112a5.6347 5.6347 0 0 0 -4.6212-1.9061c-5.41.2252-1.1418-4.6923-4.9718-7.6871-.7254-.7744-1.4109-1.5056-1.4109-2.2456.0938-1.489 2.3953-2.7979 2.9213-4.2779.6851-1.41.0194-3.9753.96-5.0913 1.1182-.9407 3.6809-.272 5.0913-.96 1.4787-.5262 2.7894-2.8278 4.2774-2.9208 1.489.0939 2.7979 2.3954 4.2779 2.9214 1.41.6851 3.9753.0194 5.0913.96a3.9826 3.9826 0 0 1 .5634 2.5025c-.596 4.8798 6.0025 5.3361 1.9063 9.1122z"/></svg>