<svg id="Layer_3" height="512" viewBox="0 0 48 48" width="512" xmlns="http://www.w3.org/2000/svg" data-name="Layer 3"><path d="m30.75 38a.75.75 0 0 0 -.75-.75h-12a.75.75 0 0 0 0 1.5h12a.75.75 0 0 0 .75-.75z"/><path d="m35 33.25h-22a.75.75 0 0 0 0 1.5h22a.75.75 0 0 0 0-1.5z"/><path d="m38 29.25h-7.0045a8.75 8.75 0 1 0 -13.991 0h-7.0045a.75.75 0 0 0 0 1.5h28a.75.75 0 0 0 0-1.5zm-21.25-5.25a7.25 7.25 0 1 1 12.2358 5.25h-9.9716a7.2344 7.2344 0 0 1 -2.2642-5.25z"/><path d="m34.25 24a.75.75 0 0 0 .75.75h3a.75.75 0 0 0 0-1.5h-3a.75.75 0 0 0 -.75.75z"/><path d="m31.7782 16.9667a.7439.7439 0 0 0 .53-.2147l2.1218-2.1211a.75.75 0 0 0 -1.0609-1.0609l-2.121 2.1211a.7538.7538 0 0 0 .5301 1.2756z"/><path d="m24 13.75a.75.75 0 0 0 .75-.75v-3a.75.75 0 0 0 -1.5 0v3a.75.75 0 0 0 .75.75z"/><path d="m15.6914 16.752a.7471.7471 0 0 0 .53.22.7558.7558 0 0 0 .5305-1.28l-2.121-2.122a.75.75 0 0 0 -1.0609 1.0609z"/><path d="m10 24.75h3a.75.75 0 0 0 0-1.5h-3a.75.75 0 0 0 0 1.5z"/><path d="m26.53 21.47-2-2a.7634.7634 0 0 0 -1.0606 0l-2 2a.75.75 0 0 0 0 1.0606.7691.7691 0 0 0 1.0606 0l.72-.72v4.1894a.75.75 0 0 0 1.5 0v-4.1895l.72.72a.7672.7672 0 0 0 1.0606 0 .75.75 0 0 0 -.0006-1.0605z"/></svg>