<svg id="Layer_3" height="512" viewBox="0 0 48 48" width="512" xmlns="http://www.w3.org/2000/svg" data-name="Layer 3"><path d="m18 37.25a.75.75 0 0 0 0 1.5h12a.75.75 0 0 0 0-1.5z"/><path d="m35.75 34a.75.75 0 0 0 -.75-.75h-22a.75.75 0 0 0 0 1.5h22a.75.75 0 0 0 .75-.75z"/><path d="m38 29.25h-7.0043a8.75 8.75 0 1 0 -13.9914 0h-7.0043a.75.75 0 0 0 0 1.5h28a.75.75 0 0 0 0-1.5zm-21.25-5.25a7.25 7.25 0 1 1 12.2358 5.25h-9.9716a7.2363 7.2363 0 0 1 -2.2642-5.25z"/><path d="m38 23.25h-3a.75.75 0 0 0 0 1.5h3a.75.75 0 0 0 0-1.5z"/><path d="m32.3086 16.752 2.1214-2.1211a.75.75 0 0 0 -1.0609-1.0609l-2.1211 2.1214a.75.75 0 0 0 1.0606 1.0606z"/><path d="m24.75 13v-3a.75.75 0 0 0 -1.5 0v3a.75.75 0 0 0 1.5 0z"/><path d="m15.6914 16.752a.76.76 0 0 0 1.0606 0 .75.75 0 0 0 0-1.0606l-2.1211-2.1214a.75.75 0 0 0 -1.0609 1.0609z"/><path d="m10 23.25a.75.75 0 0 0 0 1.5h3a.75.75 0 0 0 0-1.5z"/><path d="m26.53 23.47a.75.75 0 0 0 -1.0606 0l-.72.72v-4.19a.75.75 0 0 0 -1.5 0v4.19l-.72-.72a.75.75 0 0 0 -1.0594 1.06l2 2a.7618.7618 0 0 0 1.0606 0l2-2a.75.75 0 0 0 -.0006-1.06z"/></svg>