<svg id="Layer_3" height="512" viewBox="0 0 48 48" width="512" xmlns="http://www.w3.org/2000/svg" data-name="Layer 3"><path d="m22 9.25a5.7564 5.7564 0 0 0 -5.75 5.75v8.41a8.7457 8.7457 0 0 0 4.7461 15.2832 8.85 8.85 0 0 0 9.7539-8.6932 8.7066 8.7066 0 0 0 -3-6.59v-8.41a5.7564 5.7564 0 0 0 -5.75-5.75zm7.25 20.75a7.2513 7.2513 0 0 1 -14.4443.918 7.2413 7.2413 0 0 1 2.664-6.5728.751.751 0 0 0 .28-.5849v-8.7603a4.25 4.25 0 0 1 8.5 0v8.76a.7517.7517 0 0 0 .28.5849 7.2193 7.2193 0 0 1 2.7203 5.6551z"/><path d="m24.75 26.1475v-9.1475a2.75 2.75 0 0 0 -5.5 0v9.1465a4.7508 4.7508 0 1 0 5.5.001zm-.7314 6.3994a3.2786 3.2786 0 0 1 -5.167-1.7207 3.2211 3.2211 0 0 1 1.5254-3.6231.75.75 0 0 0 .373-.6484v-9.5547a1.25 1.25 0 0 1 2.5 0v9.5547a.7513.7513 0 0 0 .3721.6484 3.2316 3.2316 0 0 1 .3965 5.3438z"/><path d="m34.75 22a.75.75 0 0 0 -.75-.75h-4a.75.75 0 0 0 0 1.5h4a.75.75 0 0 0 .75-.75z"/><path d="m30 19.75h2a.75.75 0 0 0 0-1.5h-2a.75.75 0 0 0 0 1.5z"/><path d="m30 16.75h4a.75.75 0 0 0 0-1.5h-4a.75.75 0 0 0 0 1.5z"/><path d="m30 13.75h2a.75.75 0 0 0 0-1.5h-2a.75.75 0 0 0 0 1.5z"/></svg>