<svg id="Layer_3" height="512" viewBox="0 0 48 48" width="512" xmlns="http://www.w3.org/2000/svg" data-name="Layer 3"><path d="m15.3174 31.1a8.7506 8.7506 0 1 0 14.4326-7.69v-8.41a5.75 5.75 0 0 0 -11.5 0v8.41a8.7288 8.7288 0 0 0 -2.9326 7.69zm4.1518-6.7539a.7492.7492 0 0 0 .2808-.585v-8.7611a4.25 4.25 0 0 1 8.5 0v8.7607a.7492.7492 0 0 0 .2808.585 7.2509 7.2509 0 1 1 -9.0616 0z"/><path d="m22.8706 34.6191a4.8292 4.8292 0 0 0 4.0815-.8974 4.73 4.73 0 0 0 -.2021-7.5742v-9.1475a2.75 2.75 0 0 0 -5.5 0v9.1465a4.7378 4.7378 0 0 0 1.6206 8.4726zm-.4936-7.416a.7513.7513 0 0 0 .373-.6484v-9.5547a1.25 1.25 0 0 1 2.5 0v9.5547a.7517.7517 0 0 0 .3726.6484 3.2322 3.2322 0 0 1 .3964 5.3438 3.2889 3.2889 0 0 1 -2.8086.6113 3.2391 3.2391 0 0 1 -.8334-5.9551z"/><path d="m36.75 22a.75.75 0 0 0 -.75-.75h-4a.75.75 0 0 0 0 1.5h4a.75.75 0 0 0 .75-.75z"/><path d="m32 19.75h2a.75.75 0 0 0 0-1.5h-2a.75.75 0 0 0 0 1.5z"/><path d="m36 15.25h-4a.75.75 0 0 0 0 1.5h4a.75.75 0 0 0 0-1.5z"/><path d="m31.25 13a.75.75 0 0 0 .75.75h2a.75.75 0 0 0 0-1.5h-2a.75.75 0 0 0 -.75.75z"/><path d="m11.47 16.53a.7713.7713 0 0 0 1.0606 0l.72-.72v5.19a.75.75 0 0 0 1.5 0v-5.19l.72.72a.7609.7609 0 0 0 1.0606 0 .75.75 0 0 0 0-1.0606l-2-2a.7528.7528 0 0 0 -1.0606 0l-2 2a.75.75 0 0 0 -.0006 1.0606z"/></svg>