<?xml version="1.0" encoding="UTF-8"?>
<svg xmlns="http://www.w3.org/2000/svg" id="Layer_3" data-name="Layer 3" viewBox="0 0 48 48" width="512" height="512"><path d="M24,9.25A5.7564,5.7564,0,0,0,18.25,15v8.41a8.7458,8.7458,0,0,0,4.7451,15.2832A8.7521,8.7521,0,0,0,32.75,30a8.7066,8.7066,0,0,0-3-6.59V15A5.7564,5.7564,0,0,0,24,9.25ZM31.25,30a7.25,7.25,0,1,1-11.7808-5.6543.7492.7492,0,0,0,.2808-.585V15a4.25,4.25,0,0,1,8.5,0v8.7607a.7492.7492,0,0,0,.2808.585A7.2186,7.2186,0,0,1,31.25,30Z"/><path d="M26.75,26.1475V17a2.75,2.75,0,0,0-5.5,0v9.1465a4.7378,4.7378,0,0,0,1.6206,8.4726,4.92,4.92,0,0,0,4.0815-.8974,4.73,4.73,0,0,0-.2021-7.5742Zm-.731,6.3994a3.2878,3.2878,0,0,1-2.8086.6113,3.2391,3.2391,0,0,1-.8334-5.9551.7513.7513,0,0,0,.373-.6484V17a1.25,1.25,0,0,1,2.5,0v9.5547a.7517.7517,0,0,0,.3726.6484,3.2322,3.2322,0,0,1,.3964,5.3438Z"/><path d="M32,22.75h4a.75.75,0,0,0,0-1.5H32a.75.75,0,0,0,0,1.5Z"/><path d="M32,19.75h2a.75.75,0,0,0,0-1.5H32a.75.75,0,0,0,0,1.5Z"/><path d="M32,16.75h4a.75.75,0,0,0,0-1.5H32a.75.75,0,0,0,0,1.5Z"/><path d="M32,13.75h2a.75.75,0,0,0,0-1.5H32a.75.75,0,0,0,0,1.5Z"/><path d="M14,13.25a.75.75,0,0,0-.75.75V19.19l-.72-.72A.75.75,0,0,0,11.47,19.53l2,2a.7616.7616,0,0,0,1.0606,0l2-2A.75.75,0,0,0,15.47,18.47l-.72.72V14A.75.75,0,0,0,14,13.25Z"/></svg>
