<svg id="Layer_3" height="512" viewBox="0 0 48 48" width="512" xmlns="http://www.w3.org/2000/svg" data-name="Layer 3"><path d="m9.9678 25.75h9.9384l-5.3193 8.8643a.75.75 0 0 0 .1162.9189.7746.7746 0 0 0 .92.1055l22.77-14a.75.75 0 0 0 -.3931-1.3887h-8.9893l7.5254-6.69a.75.75 0 0 0 -.498-1.31h-15.2363a.75.75 0 0 0 -.5567.2476l-10.834 12a.75.75 0 0 0 .5567 1.2524zm11.167-12h12.9306l-7.5254 6.69a.75.75 0 0 0 .4981 1.3105h8.31l-17.895 11.0024 4.4209-7.3672a.75.75 0 0 0 -.6435-1.1357h-9.5752z"/></svg>