<svg id="Layer_3" height="512" viewBox="0 0 48 48" width="512" xmlns="http://www.w3.org/2000/svg" data-name="Layer 3"><path d="m38.7364 26.1212a.7006.7006 0 0 0 .0124-.1446 14.7551 14.7551 0 0 0 -13.9988-14.6886v-1.288a.75.75 0 0 0 -1.5 0v1.288a14.7622 14.7622 0 0 0 -14 14.712.7657.7657 0 0 0 .75.75.8006.8006 0 0 0 .5313-.2212 5.7165 5.7165 0 0 1 8.2871.01.781.781 0 0 0 .5479.2.79.79 0 0 0 .49-.2 6.1288 6.1288 0 0 1 3.394-1.7044v10.1656a3.75 3.75 0 0 0 7.5 0 .75.75 0 0 0 -1.5 0 2.25 2.25 0 0 1 -4.5 0v-10.1653a6.1288 6.1288 0 0 1 3.394 1.7044.7716.7716 0 0 0 1.0376 0 5.7235 5.7235 0 0 1 8.3 0 .7438.7438 0 0 0 .9254.0811.7839.7839 0 0 0 .3291-.499zm-10.6881-1.5789a7.2191 7.2191 0 0 0 -3.9583-1.2741.2316.2316 0 0 0 -.18 0 7.2191 7.2191 0 0 0 -3.9583 1.2741c-.3682-5.1368.9159-9.1061 2.4658-10.8626 1.0742-1.2168 2.0908-1.2168 3.165 0 1.5499 1.7565 2.834 5.7258 2.4658 10.8626zm-17.19-.1535a13.2677 13.2677 0 0 1 10.0862-11.2688c-1.4851 1.9923-2.8409 5.8906-2.5074 11.2431a7.04 7.04 0 0 0 -7.579.0257zm18.7048-.0259c.3335-5.3525-1.0223-9.2508-2.5074-11.2431a13.2679 13.2679 0 0 1 10.0861 11.2682 7.0381 7.0381 0 0 0 -7.5789-.0251z"/></svg>