<svg id="Layer_3" height="512" viewBox="0 0 48 48" width="512" xmlns="http://www.w3.org/2000/svg" data-name="Layer 3"><path d="m33.75 23.7988v-3.2988a7.7609 7.7609 0 0 0 -2.6079-5.8 7.8472 7.8472 0 0 0 -8.4956-1.1665.75.75 0 1 0 .6875 1.333 6.2316 6.2316 0 0 1 8.916 5.6335v4a.75.75 0 0 0 .75.75 4.3081 4.3081 0 0 1 4.1651 5.14 4.368 4.368 0 0 1 -4.3551 3.36h-9.84a.75.75 0 0 0 0 1.5h9.84a5.7514 5.7514 0 0 0 .94-11.4512z"/><path d="m10 30.75h6a3.25 3.25 0 1 1 -3.25 3.25.75.75 0 0 0 -1.5 0 4.75 4.75 0 1 0 4.75-4.75h-6a.75.75 0 0 0 0 1.5z"/><path d="m10 18.75h6a4.75 4.75 0 1 0 -4.75-4.75.75.75 0 0 0 1.5 0 3.25 3.25 0 1 1 3.25 3.25h-6a.75.75 0 0 0 0 1.5z"/><path d="m10 25.75h14a3.75 3.75 0 1 0 -3.75-3.75.75.75 0 0 0 1.5 0 2.25 2.25 0 1 1 2.25 2.25h-14a.75.75 0 0 0 0 1.5z"/></svg>