<svg id="Layer_3" height="512" viewBox="0 0 48 48" width="512" xmlns="http://www.w3.org/2000/svg" data-name="Layer 3"><path d="m36.2734 16.0737-17.1-1.71a1.7549 1.7549 0 0 0 -1.8312 1.21l-3.5922 3.0427v-3.9835a2.75 2.75 0 1 0 -1.5 0v22.6171h-2.25a.75.75 0 0 0 0 1.5h6a.75.75 0 0 0 0-1.5h-2.25v-15.5123l3.6 2.7119a1.7454 1.7454 0 0 0 .4749.7428 1.7789 1.7789 0 0 0 1.3486.4443l17.1006-1.71a2.7418 2.7418 0 0 0 2.4759-2.7367v-2.38a2.7419 2.7419 0 0 0 -2.4766-2.7363zm-24.5234-4.0737a1.25 1.25 0 1 1 1.25 1.25 1.2511 1.2511 0 0 1 -1.25-1.25zm17 4.8285 3.5.35v5.6431l-3.5.35zm-1.5 6.4931-3.5.35v-7.3432l3.5.35zm-10-5.7039v4.8785l-3.0488-2.2962zm1.7754 6.5263a.257.257 0 0 1 -.2754-.249v-7.79a.2556.2556 0 0 1 .2754-.249l3.2246.3225v7.6431zm18.2246-2.954a1.2469 1.2469 0 0 1 -1.125 1.2442l-2.375.2375v-5.3432l2.374.2374a1.247 1.247 0 0 1 1.126 1.2441z"/></svg>