<svg id="Layer_3" height="512" viewBox="0 0 48 48" width="512" xmlns="http://www.w3.org/2000/svg" data-name="Layer 3"><path d="m21 37.25h-8a.75.75 0 0 0 0 1.5h8a2.75 2.75 0 1 0 -2.3779-4.1279.75.75 0 0 0 1.2959.7558 1.2492 1.2492 0 1 1 1.082 1.8721z"/><path d="m33 36.25h-5a.75.75 0 0 0 0 1.5h5a2.75 2.75 0 1 0 -2.3779-4.1279.75.75 0 0 0 1.2959.7558 1.2492 1.2492 0 1 1 1.082 1.8721z"/><path d="m17.1929 29.75h13.6171a5.86 5.86 0 0 0 5.8213-4.5645 5.7582 5.7582 0 0 0 -4.8813-6.8867v-1.2988a7.7522 7.7522 0 1 0 -15.5.2617v1.0366a5.7405 5.7405 0 0 0 -4.918 6.6841 6.1391 6.1391 0 0 0 5.8609 4.7676zm-3.2056-8.7568a4.262 4.262 0 0 1 3.0127-1.2432.75.75 0 0 0 .75-.75v-1.7383a6.4477 6.4477 0 0 1 6.2578-6.5117 6.3094 6.3094 0 0 1 6.2422 6.25v2a.75.75 0 0 0 .75.75 4.2379 4.2379 0 0 1 3.29 1.5605 4.2869 4.2869 0 0 1 .87 3.5791 4.3567 4.3567 0 0 1 -4.35 3.3604h-13.6171a4.63 4.63 0 0 1 -4.3814-3.5146 4.2692 4.2692 0 0 1 1.1758-3.7422z"/></svg>