<svg id="Layer_3" height="512" viewBox="0 0 48 48" width="512" xmlns="http://www.w3.org/2000/svg" data-name="Layer 3"><path d="m38.2217 20.7324a.7529.7529 0 0 0 -.8726.169 7.2548 7.2548 0 1 1 -10.25-10.251.75.75 0 0 0 .168-.8731.7417.7417 0 0 0 -.7827-.42 10.75 10.75 0 1 0 12.1582 12.1583.7513.7513 0 0 0 -.4209-.7832zm-10.2217 8.5176a9.2483 9.2483 0 0 1 -3.4541-17.8281 8.7464 8.7464 0 0 0 12.0317 12.0322 9.3041 9.3041 0 0 1 -8.5776 5.7959z"/><path d="m23 31.25a3.7544 3.7544 0 0 0 -3.75 3.75.75.75 0 0 0 1.5 0 2.25 2.25 0 1 1 2.25 2.25h-13a.75.75 0 0 0 0 1.5h13a3.75 3.75 0 0 0 0-7.5z"/><path d="m10 33.75h5a3.75 3.75 0 1 0 -3.75-3.75.75.75 0 0 0 1.5 0 2.25 2.25 0 1 1 2.25 2.25h-5a.75.75 0 0 0 0 1.5z"/></svg>